# MagicaVoxel @ Ephtracy

# group
o 

# material
mtllib dog2.mtl
usemtl palette

# normals
vn -1 0 0
vn 1 0 0
vn 0 0 1
vn 0 0 -1
vn 0 -1 0
vn 0 1 0

# texcoords
vt 0.00195313 0.5
vt 0.0371094 0.5
vt 0.990234 0.5

# verts
v -0.5 0 0.5
v -0.5 0 0.3
v -0.5 0 -0.3
v -0.5 0 -0.5
v -0.5 0.1 0.5
v -0.5 0.1 0.3
v -0.5 0.1 -0.3
v -0.5 0.1 -0.5
v -0.5 0.2 0.3
v -0.5 0.2 -0.3
v -0.5 0.9 0.5
v -0.5 0.9 -0.5
v -0.4 0.9 0.5
v -0.4 0.9 0.4
v -0.4 1 0.5
v -0.4 1 0.4
v -0.2 0.3 0.6
v -0.2 0.3 0.5
v -0.2 0.5 0.6
v -0.2 0.5 0.5
v -0.1 0.3 -0.5
v -0.1 0.3 -0.6
v -0.1 0.9 -0.3
v -0.1 0.9 -0.5
v -0.1 1 -0.3
v -0.1 1 -0.5
v -0.1 1 -0.6
v 0.1 0.9 0.5
v 0.1 0.9 0.4
v 0.1 1 0.5
v 0.1 1 0.4
v 0.2 0 0.5
v 0.2 0 0.3
v 0.2 0 -0.3
v 0.2 0 -0.5
v 0.2 0.1 0.5
v 0.2 0.1 0.4
v 0.2 0.1 0.3
v 0.2 0.1 -0.3
v 0.2 0.1 -0.4
v 0.2 0.1 -0.5
v -0.3 0 0.5
v -0.3 0 0.3
v -0.3 0 -0.3
v -0.3 0 -0.5
v -0.3 0.1 0.5
v -0.3 0.1 0.4
v -0.3 0.1 0.3
v -0.3 0.1 -0.3
v -0.3 0.1 -0.4
v -0.3 0.1 -0.5
v -0.2 0.9 0.5
v -0.2 0.9 0.4
v -0.2 1 0.5
v -0.2 1 0.4
v 0 0.3 -0.5
v 0 0.3 -0.6
v 0 0.9 -0.3
v 0 0.9 -0.5
v 0 1 -0.3
v 0 1 -0.5
v 0 1 -0.6
v 0.1 0.3 0.6
v 0.1 0.3 0.5
v 0.1 0.5 0.6
v 0.1 0.5 0.5
v 0.3 0.9 0.5
v 0.3 0.9 0.4
v 0.3 1 0.5
v 0.3 1 0.4
v 0.4 0 0.5
v 0.4 0 0.3
v 0.4 0 -0.3
v 0.4 0 -0.5
v 0.4 0.1 0.5
v 0.4 0.1 0.3
v 0.4 0.1 -0.3
v 0.4 0.1 -0.5
v 0.4 0.2 0.3
v 0.4 0.2 -0.3
v 0.4 0.9 0.5
v 0.4 0.9 -0.5
v -0.2 0.3 0.6
v -0.2 0.5 0.6
v -0.1 0.4 0.6
v -0.1 0.5 0.6
v 0 0.4 0.6
v 0 0.5 0.6
v 0.1 0.3 0.6
v 0.1 0.5 0.6
v -0.5 0 0.5
v -0.5 0.1 0.5
v -0.5 0.9 0.5
v -0.4 0.1 0.5
v -0.4 0.5 0.5
v -0.4 0.9 0.5
v -0.4 1 0.5
v -0.3 0 0.5
v -0.3 0.1 0.5
v -0.3 0.5 0.5
v -0.3 0.6 0.5
v -0.3 0.9 0.5
v -0.3 1 0.5
v -0.2 0.3 0.5
v -0.2 0.5 0.5
v -0.2 0.6 0.5
v -0.2 0.9 0.5
v -0.2 1 0.5
v -0.1 0.5 0.5
v 0 0.5 0.5
v 0.1 0.3 0.5
v 0.1 0.5 0.5
v 0.1 0.6 0.5
v 0.1 0.9 0.5
v 0.1 1 0.5
v 0.2 0 0.5
v 0.2 0.1 0.5
v 0.2 0.5 0.5
v 0.2 0.6 0.5
v 0.2 0.9 0.5
v 0.2 1 0.5
v 0.3 0.1 0.5
v 0.3 0.5 0.5
v 0.3 0.9 0.5
v 0.3 1 0.5
v 0.4 0 0.5
v 0.4 0.1 0.5
v 0.4 0.9 0.5
v -0.5 0 -0.3
v -0.5 0.1 -0.3
v -0.4 0.1 -0.3
v -0.3 0 -0.3
v -0.3 0.1 -0.3
v -0.1 0.9 -0.3
v -0.1 1 -0.3
v 0 0.9 -0.3
v 0 1 -0.3
v 0.2 0 -0.3
v 0.2 0.1 -0.3
v 0.3 0.1 -0.3
v 0.4 0 -0.3
v 0.4 0.1 -0.3
v -0.4 0.9 0.4
v -0.4 1 0.4
v -0.3 0.9 0.4
v -0.3 1 0.4
v -0.2 0.9 0.4
v -0.2 1 0.4
v 0.1 0.9 0.4
v 0.1 1 0.4
v 0.2 0.9 0.4
v 0.2 1 0.4
v 0.3 0.9 0.4
v 0.3 1 0.4
v -0.5 0 0.3
v -0.5 0.1 0.3
v -0.4 0.1 0.3
v -0.3 0 0.3
v -0.3 0.1 0.3
v 0.2 0 0.3
v 0.2 0.1 0.3
v 0.3 0.1 0.3
v 0.4 0 0.3
v 0.4 0.1 0.3
v -0.5 0 -0.5
v -0.5 0.1 -0.5
v -0.5 0.9 -0.5
v -0.3 0 -0.5
v -0.3 0.1 -0.5
v -0.3 0.2 -0.5
v -0.2 0.2 -0.5
v -0.2 0.3 -0.5
v -0.1 0.3 -0.5
v -0.1 0.9 -0.5
v 0 0.3 -0.5
v 0 0.9 -0.5
v 0.1 0.2 -0.5
v 0.1 0.3 -0.5
v 0.2 0 -0.5
v 0.2 0.1 -0.5
v 0.2 0.2 -0.5
v 0.4 0 -0.5
v 0.4 0.1 -0.5
v 0.4 0.9 -0.5
v -0.1 0.3 -0.6
v -0.1 1 -0.6
v 0 0.3 -0.6
v 0 1 -0.6
v -0.5 0 0.5
v -0.3 0 0.5
v 0.2 0 0.5
v 0.4 0 0.5
v -0.5 0 0.3
v -0.3 0 0.3
v 0.2 0 0.3
v 0.4 0 0.3
v -0.5 0 -0.3
v -0.3 0 -0.3
v 0.2 0 -0.3
v 0.4 0 -0.3
v -0.5 0 -0.5
v -0.3 0 -0.5
v 0.2 0 -0.5
v 0.4 0 -0.5
v -0.3 0.1 0.5
v 0.2 0.1 0.5
v -0.3 0.1 0.4
v 0.2 0.1 0.4
v -0.5 0.1 0.3
v -0.4 0.1 0.3
v -0.3 0.1 0.3
v 0.2 0.1 0.3
v 0.3 0.1 0.3
v 0.4 0.1 0.3
v -0.5 0.1 -0.3
v -0.4 0.1 -0.3
v -0.3 0.1 -0.3
v 0.2 0.1 -0.3
v 0.3 0.1 -0.3
v 0.4 0.1 -0.3
v -0.3 0.1 -0.4
v 0.2 0.1 -0.4
v -0.3 0.1 -0.5
v 0.2 0.1 -0.5
v -0.2 0.3 0.6
v 0.1 0.3 0.6
v -0.2 0.3 0.5
v 0.1 0.3 0.5
v -0.1 0.3 -0.5
v 0 0.3 -0.5
v -0.1 0.3 -0.6
v 0 0.3 -0.6
v -0.2 0.5 0.6
v -0.1 0.5 0.6
v 0 0.5 0.6
v 0.1 0.5 0.6
v -0.2 0.5 0.5
v -0.1 0.5 0.5
v 0 0.5 0.5
v 0.1 0.5 0.5
v -0.5 0.9 0.5
v -0.4 0.9 0.5
v -0.2 0.9 0.5
v 0.1 0.9 0.5
v 0.3 0.9 0.5
v 0.4 0.9 0.5
v -0.4 0.9 0.4
v -0.3 0.9 0.4
v -0.2 0.9 0.4
v 0.1 0.9 0.4
v 0.2 0.9 0.4
v 0.3 0.9 0.4
v -0.1 0.9 -0.3
v 0 0.9 -0.3
v -0.5 0.9 -0.5
v -0.1 0.9 -0.5
v 0 0.9 -0.5
v 0.4 0.9 -0.5
v -0.4 1 0.5
v -0.3 1 0.5
v -0.2 1 0.5
v 0.1 1 0.5
v 0.2 1 0.5
v 0.3 1 0.5
v -0.4 1 0.4
v -0.3 1 0.4
v -0.2 1 0.4
v 0.1 1 0.4
v 0.2 1 0.4
v 0.3 1 0.4
v -0.1 1 -0.3
v 0 1 -0.3
v -0.1 1 -0.5
v 0 1 -0.5
v -0.1 1 -0.6
v 0 1 -0.6

# faces
f 5/1/1 2/1/1 1/1/1
f 6/1/1 2/1/1 5/1/1
f 7/1/1 4/1/1 3/1/1
f 8/1/1 4/1/1 7/1/1
f 9/2/1 6/2/1 5/2/1
f 9/1/1 7/1/1 6/1/1
f 10/2/1 8/2/1 7/2/1
f 10/1/1 7/1/1 9/1/1
f 11/2/1 9/2/1 5/2/1
f 11/2/1 10/2/1 9/2/1
f 12/2/1 8/2/1 10/2/1
f 12/2/1 10/2/1 11/2/1
f 15/2/1 14/2/1 13/2/1
f 16/2/1 14/2/1 15/2/1
f 19/1/1 18/1/1 17/1/1
f 20/1/1 18/1/1 19/1/1
f 24/1/1 22/1/1 21/1/1
f 25/2/1 24/2/1 23/2/1
f 26/1/1 22/1/1 24/1/1
f 26/2/1 24/2/1 25/2/1
f 27/1/1 22/1/1 26/1/1
f 30/1/1 29/1/1 28/1/1
f 31/1/1 29/1/1 30/1/1
f 36/1/1 33/1/1 32/1/1
f 37/1/1 33/1/1 36/1/1
f 38/1/1 33/1/1 37/1/1
f 39/1/1 35/1/1 34/1/1
f 40/1/1 35/1/1 39/1/1
f 41/1/1 35/1/1 40/1/1
f 42/1/2 43/1/2 46/1/2
f 46/1/2 43/1/2 47/1/2
f 47/1/2 43/1/2 48/1/2
f 44/1/2 45/1/2 49/1/2
f 49/1/2 45/1/2 50/1/2
f 50/1/2 45/1/2 51/1/2
f 52/1/2 53/1/2 54/1/2
f 54/1/2 53/1/2 55/1/2
f 56/1/2 57/1/2 59/1/2
f 58/2/2 59/2/2 60/2/2
f 59/1/2 57/1/2 61/1/2
f 60/2/2 59/2/2 61/2/2
f 61/1/2 57/1/2 62/1/2
f 63/1/2 64/1/2 65/1/2
f 65/1/2 64/1/2 66/1/2
f 67/2/2 68/2/2 69/2/2
f 69/2/2 68/2/2 70/2/2
f 71/1/2 72/1/2 75/1/2
f 75/1/2 72/1/2 76/1/2
f 73/1/2 74/1/2 77/1/2
f 77/1/2 74/1/2 78/1/2
f 75/2/2 76/2/2 79/2/2
f 76/1/2 77/1/2 79/1/2
f 77/2/2 78/2/2 80/2/2
f 79/1/2 77/1/2 80/1/2
f 75/2/2 79/2/2 81/2/2
f 79/2/2 80/2/2 81/2/2
f 80/2/2 78/2/2 82/2/2
f 81/2/2 80/2/2 82/2/2
f 85/1/3 84/1/3 83/1/3
f 86/1/3 84/1/3 85/1/3
f 87/1/3 85/1/3 83/1/3
f 87/3/3 86/3/3 85/3/3
f 88/3/3 86/3/3 87/3/3
f 89/1/3 87/1/3 83/1/3
f 89/1/3 88/1/3 87/1/3
f 90/1/3 88/1/3 89/1/3
f 94/1/3 92/1/3 91/1/3
f 94/2/3 93/2/3 92/2/3
f 95/2/3 93/2/3 94/2/3
f 96/2/3 93/2/3 95/2/3
f 98/1/3 94/1/3 91/1/3
f 98/1/3 95/1/3 94/1/3
f 99/1/3 95/1/3 98/1/3
f 100/2/3 97/2/3 96/2/3
f 100/1/3 95/1/3 99/1/3
f 100/2/3 96/2/3 95/2/3
f 101/2/3 97/2/3 100/2/3
f 102/2/3 97/2/3 101/2/3
f 103/2/3 97/2/3 102/2/3
f 104/1/3 100/1/3 99/1/3
f 105/3/3 101/3/3 100/3/3
f 105/1/3 100/1/3 104/1/3
f 106/2/3 102/2/3 101/2/3
f 106/3/3 101/3/3 105/3/3
f 107/1/3 103/1/3 102/1/3
f 107/2/3 102/2/3 106/2/3
f 108/1/3 103/1/3 107/1/3
f 109/2/3 106/2/3 105/2/3
f 109/2/3 107/2/3 106/2/3
f 110/2/3 107/2/3 109/2/3
f 111/1/3 104/1/3 99/1/3
f 112/2/3 107/2/3 110/2/3
f 113/2/3 107/2/3 112/2/3
f 114/2/3 107/2/3 113/2/3
f 117/1/3 111/1/3 99/1/3
f 117/1/3 112/1/3 111/1/3
f 118/3/3 113/3/3 112/3/3
f 118/1/3 112/1/3 117/1/3
f 119/2/3 114/2/3 113/2/3
f 119/3/3 113/3/3 118/3/3
f 120/1/3 115/1/3 114/1/3
f 120/2/3 114/2/3 119/2/3
f 121/1/3 115/1/3 120/1/3
f 122/1/3 118/1/3 117/1/3
f 122/1/3 117/1/3 116/1/3
f 123/2/3 119/2/3 118/2/3
f 123/1/3 118/1/3 122/1/3
f 123/2/3 121/2/3 120/2/3
f 123/2/3 120/2/3 119/2/3
f 124/2/3 121/2/3 123/2/3
f 125/2/3 121/2/3 124/2/3
f 126/1/3 122/1/3 116/1/3
f 127/2/3 123/2/3 122/2/3
f 127/1/3 122/1/3 126/1/3
f 127/2/3 124/2/3 123/2/3
f 128/2/3 124/2/3 127/2/3
f 131/1/3 130/1/3 129/1/3
f 132/1/3 131/1/3 129/1/3
f 133/1/3 131/1/3 132/1/3
f 136/2/3 135/2/3 134/2/3
f 137/2/3 135/2/3 136/2/3
f 140/1/3 139/1/3 138/1/3
f 141/1/3 140/1/3 138/1/3
f 142/1/3 140/1/3 141/1/3
f 143/2/4 144/2/4 145/2/4
f 145/2/4 144/2/4 146/2/4
f 145/1/4 146/1/4 147/1/4
f 147/1/4 146/1/4 148/1/4
f 149/1/4 150/1/4 151/1/4
f 151/1/4 150/1/4 152/1/4
f 151/2/4 152/2/4 153/2/4
f 153/2/4 152/2/4 154/2/4
f 155/1/4 156/1/4 157/1/4
f 155/1/4 157/1/4 158/1/4
f 158/1/4 157/1/4 159/1/4
f 160/1/4 161/1/4 162/1/4
f 160/1/4 162/1/4 163/1/4
f 163/1/4 162/1/4 164/1/4
f 165/1/4 166/1/4 168/1/4
f 166/2/4 167/2/4 169/2/4
f 168/1/4 166/1/4 169/1/4
f 169/2/4 167/2/4 170/2/4
f 170/2/4 167/2/4 171/2/4
f 169/1/4 170/1/4 171/1/4
f 171/2/4 167/2/4 172/2/4
f 171/1/4 172/1/4 173/1/4
f 172/2/4 167/2/4 173/2/4
f 173/2/4 167/2/4 174/2/4
f 171/1/4 173/1/4 175/1/4
f 169/1/4 171/1/4 177/1/4
f 171/1/4 175/1/4 177/1/4
f 175/2/4 176/2/4 178/2/4
f 177/1/4 175/1/4 178/1/4
f 169/1/4 177/1/4 180/1/4
f 177/2/4 178/2/4 181/2/4
f 180/1/4 177/1/4 181/1/4
f 179/1/4 180/1/4 182/1/4
f 180/2/4 181/2/4 183/2/4
f 182/1/4 180/1/4 183/1/4
f 178/2/4 176/2/4 184/2/4
f 183/2/4 181/2/4 184/2/4
f 181/2/4 178/2/4 184/2/4
f 185/1/4 186/1/4 187/1/4
f 187/1/4 186/1/4 188/1/4
f 193/1/5 190/1/5 189/1/5
f 194/1/5 190/1/5 193/1/5
f 195/1/5 192/1/5 191/1/5
f 196/1/5 192/1/5 195/1/5
f 201/1/5 198/1/5 197/1/5
f 202/1/5 198/1/5 201/1/5
f 203/1/5 200/1/5 199/1/5
f 204/1/5 200/1/5 203/1/5
f 207/1/5 206/1/5 205/1/5
f 208/1/5 206/1/5 207/1/5
f 211/2/5 208/2/5 207/2/5
f 212/2/5 208/2/5 211/2/5
f 215/1/5 210/1/5 209/1/5
f 216/2/5 212/2/5 211/2/5
f 216/1/5 210/1/5 215/1/5
f 216/2/5 211/2/5 210/2/5
f 216/2/5 213/2/5 212/2/5
f 217/2/5 213/2/5 216/2/5
f 218/2/5 213/2/5 217/2/5
f 219/1/5 214/1/5 213/1/5
f 219/2/5 213/2/5 218/2/5
f 220/1/5 214/1/5 219/1/5
f 221/2/5 218/2/5 217/2/5
f 222/2/5 218/2/5 221/2/5
f 223/1/5 222/1/5 221/1/5
f 224/1/5 222/1/5 223/1/5
f 227/1/5 226/1/5 225/1/5
f 228/1/5 226/1/5 227/1/5
f 231/1/5 230/1/5 229/1/5
f 232/1/5 230/1/5 231/1/5
f 233/1/6 234/1/6 237/1/6
f 234/3/6 235/3/6 238/3/6
f 237/1/6 234/1/6 238/1/6
f 235/1/6 236/1/6 239/1/6
f 238/3/6 235/3/6 239/3/6
f 239/1/6 236/1/6 240/1/6
f 241/2/6 242/2/6 247/2/6
f 243/2/6 244/2/6 249/2/6
f 249/2/6 244/2/6 250/2/6
f 245/2/6 246/2/6 252/2/6
f 250/2/6 251/2/6 253/2/6
f 251/2/6 252/2/6 253/2/6
f 247/2/6 248/2/6 253/2/6
f 248/2/6 249/2/6 253/2/6
f 249/2/6 250/2/6 253/2/6
f 253/2/6 252/2/6 254/2/6
f 241/2/6 247/2/6 255/2/6
f 247/2/6 253/2/6 255/2/6
f 255/2/6 253/2/6 256/2/6
f 254/2/6 252/2/6 257/2/6
f 252/2/6 246/2/6 258/2/6
f 257/2/6 252/2/6 258/2/6
f 259/2/6 260/2/6 265/2/6
f 260/1/6 261/1/6 266/1/6
f 265/2/6 260/2/6 266/2/6
f 266/1/6 261/1/6 267/1/6
f 262/1/6 263/1/6 268/1/6
f 263/2/6 264/2/6 269/2/6
f 268/1/6 263/1/6 269/1/6
f 269/2/6 264/2/6 270/2/6
f 271/2/6 272/2/6 273/2/6
f 273/2/6 272/2/6 274/2/6
f 273/1/6 274/1/6 275/1/6
f 275/1/6 274/1/6 276/1/6
