# MagicaVoxel @ Ephtracy

# group
o 

# material
mtllib rabbit.mtl
usemtl palette

# normals
vn -1 0 0
vn 1 0 0
vn 0 0 1
vn 0 0 -1
vn 0 -1 0
vn 0 1 0

# texcoords
vt 0.00195313 0.5
vt 0.0292969 0.5
vt 0.0371094 0.5
vt 0.0566406 0.5
vt 0.986328 0.5

# verts
v -1.1 1.8 0.6
v -1.1 1.8 0.3
v -1.1 1.8 -0.2
v -1.1 1.8 -0.5
v -1.1 1.9 0.6
v -1.1 1.9 0.3
v -1.1 1.9 -0.2
v -1.1 1.9 -0.5
v -1 0.7 0.2
v -1 0.7 -0.1
v -1 0.8 0.1
v -1 0.8 0
v -1 0.9 0.2
v -1 0.9 0.1
v -1 0.9 0
v -1 0.9 -0.1
v -0.9 0 0.8
v -0.9 0 0.5
v -0.9 0 -0.4
v -0.9 0 -0.7
v -0.9 0.1 0.6
v -0.9 0.1 0.5
v -0.9 0.1 -0.4
v -0.9 0.1 -0.5
v -0.9 0.3 0.6
v -0.9 0.3 0.5
v -0.9 0.3 -0.4
v -0.9 0.3 -0.5
v -0.9 0.4 0.5
v -0.9 0.4 0.4
v -0.9 0.4 -0.3
v -0.9 0.4 -0.4
v -0.9 0.5 0.4
v -0.9 0.5 0.3
v -0.9 0.5 -0.2
v -0.9 0.5 -0.3
v -0.9 0.6 0.9
v -0.9 0.6 0.8
v -0.9 0.6 0.6
v -0.9 0.6 0.3
v -0.9 0.6 -0.2
v -0.9 0.6 -0.5
v -0.9 0.6 -0.7
v -0.9 0.6 -0.8
v -0.9 0.7 0.9
v -0.9 0.7 0.8
v -0.9 0.7 0.6
v -0.9 0.7 0.2
v -0.9 0.7 -0.1
v -0.9 0.7 -0.5
v -0.9 0.7 -0.7
v -0.9 0.7 -0.8
v -0.9 0.8 0.9
v -0.9 0.8 0.8
v -0.9 0.8 0.6
v -0.9 0.8 -0.5
v -0.9 0.8 -0.7
v -0.9 0.8 -0.8
v -0.9 0.9 0.9
v -0.9 0.9 0.8
v -0.9 0.9 0.6
v -0.9 0.9 0.4
v -0.9 0.9 0.3
v -0.9 0.9 0.2
v -0.9 0.9 0.1
v -0.9 0.9 0
v -0.9 0.9 -0.1
v -0.9 0.9 -0.2
v -0.9 0.9 -0.3
v -0.9 0.9 -0.5
v -0.9 0.9 -0.7
v -0.9 0.9 -0.8
v -0.9 1.1 0.4
v -0.9 1.1 0.3
v -0.9 1.1 -0.2
v -0.9 1.1 -0.3
v -0.9 1.5 0.8
v -0.9 1.5 0.6
v -0.9 1.5 0.5
v -0.9 1.5 0.4
v -0.9 1.5 0.3
v -0.9 1.5 -0.2
v -0.9 1.5 -0.3
v -0.9 1.5 -0.4
v -0.9 1.5 -0.5
v -0.9 1.5 -0.7
v -0.9 1.8 0.6
v -0.9 1.8 0.5
v -0.9 1.8 0.4
v -0.9 1.8 0.3
v -0.9 1.8 -0.2
v -0.9 1.8 -0.3
v -0.9 1.8 -0.4
v -0.9 1.8 -0.5
v 0.5 0 0.8
v 0.5 0 0.5
v 0.5 0 -0.4
v 0.5 0 -0.7
v 0.5 0.1 0.8
v 0.5 0.1 0.7
v 0.5 0.1 0.5
v 0.5 0.1 -0.4
v 0.5 0.1 -0.6
v 0.5 0.1 -0.7
v -0.8 0.6 0.9
v -0.8 0.6 0.8
v -0.8 0.6 -0.7
v -0.8 0.6 -0.8
v -0.8 0.7 0.9
v -0.8 0.7 0.8
v -0.8 0.7 -0.7
v -0.8 0.7 -0.8
v -0.8 0.8 0.9
v -0.8 0.8 0.8
v -0.8 0.8 -0.7
v -0.8 0.8 -0.8
v -0.8 0.9 0.9
v -0.8 0.9 0.8
v -0.8 0.9 -0.7
v -0.8 0.9 -0.8
v -0.7 1.5 0.6
v -0.7 1.5 0.3
v -0.7 1.5 -0.2
v -0.7 1.5 -0.5
v -0.7 1.9 0.6
v -0.7 1.9 0.3
v -0.7 1.9 -0.2
v -0.7 1.9 -0.5
v -0.6 0 0.8
v -0.6 0 0.5
v -0.6 0 -0.4
v -0.6 0 -0.7
v -0.6 0.1 0.8
v -0.6 0.1 0.7
v -0.6 0.1 0.5
v -0.6 0.1 -0.4
v -0.6 0.1 -0.6
v -0.6 0.1 -0.7
v 0.8 0 0.8
v 0.8 0 0.5
v 0.8 0 -0.4
v 0.8 0 -0.7
v 0.8 0.1 0.6
v 0.8 0.1 0.5
v 0.8 0.1 -0.4
v 0.8 0.1 -0.5
v 0.8 0.4 0.6
v 0.8 0.4 0.5
v 0.8 0.4 -0.4
v 0.8 0.4 -0.5
v 0.8 0.5 0.5
v 0.8 0.5 0.3
v 0.8 0.5 -0.2
v 0.8 0.5 -0.4
v 0.8 0.6 0.3
v 0.8 0.6 -0.2
v 0.8 1.2 0.1
v 0.8 1.2 0
v 0.8 1.3 0.1
v 0.8 1.3 0
v 0.8 1.5 0.8
v 0.8 1.5 -0.7
v 0.9 1.2 0.1
v 0.9 1.2 0
v 0.9 1.3 0.1
v 0.9 1.3 0
v -0.9 0.6 0.9
v -0.9 0.7 0.9
v -0.9 0.8 0.9
v -0.9 0.9 0.9
v -0.8 0.6 0.9
v -0.8 0.7 0.9
v -0.8 0.8 0.9
v -0.8 0.9 0.9
v -0.9 0 0.8
v -0.9 0.6 0.8
v -0.9 0.7 0.8
v -0.9 0.8 0.8
v -0.9 0.9 0.8
v -0.9 1.5 0.8
v -0.8 0.6 0.8
v -0.8 0.7 0.8
v -0.8 0.8 0.8
v -0.8 0.9 0.8
v -0.6 0 0.8
v -0.6 0.1 0.8
v -0.6 0.4 0.8
v 0.5 0 0.8
v 0.5 0.1 0.8
v 0.6 0.1 0.8
v 0.6 0.4 0.8
v 0.8 0 0.8
v 0.8 1.5 0.8
v -1.1 1.8 0.6
v -1.1 1.9 0.6
v -0.9 1.5 0.6
v -0.9 1.8 0.6
v -0.7 1.5 0.6
v -0.7 1.9 0.6
v -1 0.7 0.2
v -1 0.9 0.2
v -0.9 0.7 0.2
v -0.9 0.9 0.2
v 0.8 1.2 0.1
v 0.8 1.3 0.1
v 0.9 1.2 0.1
v 0.9 1.3 0.1
v -1.1 1.8 -0.2
v -1.1 1.9 -0.2
v -0.9 1.5 -0.2
v -0.9 1.8 -0.2
v -0.7 1.5 -0.2
v -0.7 1.9 -0.2
v -0.9 0 -0.4
v -0.9 0.1 -0.4
v -0.8 0.1 -0.4
v -0.6 0 -0.4
v -0.6 0.1 -0.4
v 0.5 0 -0.4
v 0.5 0.1 -0.4
v 0.7 0.1 -0.4
v 0.8 0 -0.4
v 0.8 0.1 -0.4
v -0.9 0 0.5
v -0.9 0.1 0.5
v -0.8 0.1 0.5
v -0.6 0 0.5
v -0.6 0.1 0.5
v 0.5 0 0.5
v 0.5 0.1 0.5
v 0.7 0.1 0.5
v 0.8 0 0.5
v 0.8 0.1 0.5
v -1.1 1.8 0.3
v -1.1 1.9 0.3
v -0.9 1.5 0.3
v -0.9 1.8 0.3
v -0.7 1.5 0.3
v -0.7 1.9 0.3
v 0.8 1.2 0
v 0.8 1.3 0
v 0.9 1.2 0
v 0.9 1.3 0
v -1 0.7 -0.1
v -1 0.9 -0.1
v -0.9 0.7 -0.1
v -0.9 0.9 -0.1
v -1.1 1.8 -0.5
v -1.1 1.9 -0.5
v -0.9 1.5 -0.5
v -0.9 1.8 -0.5
v -0.7 1.5 -0.5
v -0.7 1.9 -0.5
v -0.9 0 -0.7
v -0.9 0.6 -0.7
v -0.9 0.7 -0.7
v -0.9 0.8 -0.7
v -0.9 0.9 -0.7
v -0.9 1.5 -0.7
v -0.8 0.6 -0.7
v -0.8 0.7 -0.7
v -0.8 0.8 -0.7
v -0.8 0.9 -0.7
v -0.6 0 -0.7
v -0.6 0.1 -0.7
v -0.6 0.4 -0.7
v 0.5 0 -0.7
v 0.5 0.1 -0.7
v 0.6 0.1 -0.7
v 0.6 0.4 -0.7
v 0.8 0 -0.7
v 0.8 1.5 -0.7
v -0.9 0.6 -0.8
v -0.9 0.7 -0.8
v -0.9 0.8 -0.8
v -0.9 0.9 -0.8
v -0.8 0.6 -0.8
v -0.8 0.7 -0.8
v -0.8 0.8 -0.8
v -0.8 0.9 -0.8
v -0.9 0 0.8
v -0.6 0 0.8
v 0.5 0 0.8
v 0.8 0 0.8
v -0.8 0 0.7
v -0.7 0 0.7
v 0.6 0 0.7
v 0.7 0 0.7
v -0.8 0 0.6
v -0.7 0 0.6
v 0.6 0 0.6
v 0.7 0 0.6
v -0.9 0 0.5
v -0.6 0 0.5
v 0.5 0 0.5
v 0.8 0 0.5
v -0.9 0 -0.4
v -0.6 0 -0.4
v 0.5 0 -0.4
v 0.8 0 -0.4
v -0.8 0 -0.5
v -0.7 0 -0.5
v 0.6 0 -0.5
v 0.7 0 -0.5
v -0.8 0 -0.6
v -0.7 0 -0.6
v 0.6 0 -0.6
v 0.7 0 -0.6
v -0.9 0 -0.7
v -0.6 0 -0.7
v 0.5 0 -0.7
v 0.8 0 -0.7
v -0.6 0.1 0.8
v 0.5 0.1 0.8
v -0.6 0.1 0.7
v 0.5 0.1 0.7
v -0.9 0.1 0.5
v -0.8 0.1 0.5
v -0.6 0.1 0.5
v 0.5 0.1 0.5
v 0.7 0.1 0.5
v 0.8 0.1 0.5
v -0.9 0.1 -0.4
v -0.8 0.1 -0.4
v -0.6 0.1 -0.4
v 0.5 0.1 -0.4
v 0.7 0.1 -0.4
v 0.8 0.1 -0.4
v -0.6 0.1 -0.6
v 0.5 0.1 -0.6
v -0.6 0.1 -0.7
v 0.5 0.1 -0.7
v -0.9 0.6 0.9
v -0.8 0.6 0.9
v -0.9 0.6 0.8
v -0.8 0.6 0.8
v -0.9 0.6 -0.7
v -0.8 0.6 -0.7
v -0.9 0.6 -0.8
v -0.8 0.6 -0.8
v -1 0.7 0.2
v -0.9 0.7 0.2
v -1 0.7 -0.1
v -0.9 0.7 -0.1
v -0.9 0.8 0.9
v -0.8 0.8 0.9
v -0.9 0.8 0.8
v -0.8 0.8 0.8
v -0.9 0.8 -0.7
v -0.8 0.8 -0.7
v -0.9 0.8 -0.8
v -0.8 0.8 -0.8
v 0.8 1.2 0.1
v 0.9 1.2 0.1
v 0.8 1.2 0
v 0.9 1.2 0
v -1.1 1.8 0.6
v -0.9 1.8 0.6
v -0.9 1.8 0.5
v -0.9 1.8 0.4
v -1.1 1.8 0.3
v -0.9 1.8 0.3
v -1.1 1.8 -0.2
v -0.9 1.8 -0.2
v -0.9 1.8 -0.3
v -0.9 1.8 -0.4
v -1.1 1.8 -0.5
v -0.9 1.8 -0.5
v -0.9 0.7 0.9
v -0.8 0.7 0.9
v -0.9 0.7 0.8
v -0.8 0.7 0.8
v -0.9 0.7 -0.7
v -0.8 0.7 -0.7
v -0.9 0.7 -0.8
v -0.8 0.7 -0.8
v -0.9 0.9 0.9
v -0.8 0.9 0.9
v -0.9 0.9 0.8
v -0.8 0.9 0.8
v -1 0.9 0.2
v -0.9 0.9 0.2
v -1 0.9 0.1
v -0.9 0.9 0.1
v -1 0.9 0
v -0.9 0.9 0
v -1 0.9 -0.1
v -0.9 0.9 -0.1
v -0.9 0.9 -0.7
v -0.8 0.9 -0.7
v -0.9 0.9 -0.8
v -0.8 0.9 -0.8
v 0.8 1.3 0.1
v 0.9 1.3 0.1
v 0.8 1.3 0
v 0.9 1.3 0
v -0.9 1.5 0.8
v 0.8 1.5 0.8
v -0.9 1.5 0.6
v -0.7 1.5 0.6
v -0.9 1.5 0.3
v -0.7 1.5 0.3
v -0.9 1.5 -0.2
v -0.7 1.5 -0.2
v -0.9 1.5 -0.5
v -0.7 1.5 -0.5
v -0.9 1.5 -0.7
v 0.8 1.5 -0.7
v -1.1 1.9 0.6
v -0.7 1.9 0.6
v -1.1 1.9 0.3
v -0.7 1.9 0.3
v -1.1 1.9 -0.2
v -0.7 1.9 -0.2
v -1.1 1.9 -0.5
v -0.7 1.9 -0.5

# faces
f 5/1/1 2/1/1 1/1/1
f 6/1/1 2/1/1 5/1/1
f 7/1/1 4/1/1 3/1/1
f 8/1/1 4/1/1 7/1/1
f 11/1/1 10/1/1 9/1/1
f 12/1/1 10/1/1 11/1/1
f 13/1/1 11/1/1 9/1/1
f 14/4/1 12/4/1 11/4/1
f 14/1/1 11/1/1 13/1/1
f 15/1/1 10/1/1 12/1/1
f 15/4/1 12/4/1 14/4/1
f 16/1/1 10/1/1 15/1/1
f 21/1/1 18/1/1 17/1/1
f 22/1/1 18/1/1 21/1/1
f 23/1/1 20/1/1 19/1/1
f 24/1/1 20/1/1 23/1/1
f 25/2/1 22/2/1 21/2/1
f 25/1/1 21/1/1 17/1/1
f 25/2/1 24/2/1 23/2/1
f 25/2/1 23/2/1 22/2/1
f 26/2/1 24/2/1 25/2/1
f 27/2/1 24/2/1 26/2/1
f 28/1/1 20/1/1 24/1/1
f 28/2/1 24/2/1 27/2/1
f 29/2/1 27/2/1 26/2/1
f 29/1/1 26/1/1 25/1/1
f 30/2/1 27/2/1 29/2/1
f 31/2/1 27/2/1 30/2/1
f 32/1/1 28/1/1 27/1/1
f 32/2/1 27/2/1 31/2/1
f 33/2/1 31/2/1 30/2/1
f 33/1/1 30/1/1 29/1/1
f 34/2/1 31/2/1 33/2/1
f 35/2/1 31/2/1 34/2/1
f 36/1/1 32/1/1 31/1/1
f 36/2/1 31/2/1 35/2/1
f 38/1/1 25/1/1 17/1/1
f 38/1/1 29/1/1 25/1/1
f 38/1/1 33/1/1 29/1/1
f 38/1/1 34/1/1 33/1/1
f 39/1/1 34/1/1 38/1/1
f 40/2/1 35/2/1 34/2/1
f 40/1/1 34/1/1 39/1/1
f 41/1/1 36/1/1 35/1/1
f 41/2/1 35/2/1 40/2/1
f 42/1/1 20/1/1 28/1/1
f 42/1/1 36/1/1 41/1/1
f 42/1/1 32/1/1 36/1/1
f 42/1/1 28/1/1 32/1/1
f 43/1/1 20/1/1 42/1/1
f 45/4/1 38/4/1 37/4/1
f 45/4/1 39/4/1 38/4/1
f 46/4/1 39/4/1 45/4/1
f 47/1/1 41/1/1 40/1/1
f 47/4/1 39/4/1 46/4/1
f 47/1/1 40/1/1 39/1/1
f 47/1/1 42/1/1 41/1/1
f 48/1/1 42/1/1 47/1/1
f 49/1/1 42/1/1 48/1/1
f 50/4/1 44/4/1 43/4/1
f 50/1/1 42/1/1 49/1/1
f 50/4/1 43/4/1 42/4/1
f 51/4/1 44/4/1 50/4/1
f 52/4/1 44/4/1 51/4/1
f 54/1/1 48/1/1 47/1/1
f 54/1/1 47/1/1 46/1/1
f 55/1/1 48/1/1 54/1/1
f 56/1/1 51/1/1 50/1/1
f 56/1/1 50/1/1 49/1/1
f 57/1/1 51/1/1 56/1/1
f 59/4/1 55/4/1 54/4/1
f 59/4/1 54/4/1 53/4/1
f 60/4/1 55/4/1 59/4/1
f 61/1/1 48/1/1 55/1/1
f 61/4/1 55/4/1 60/4/1
f 62/1/1 48/1/1 61/1/1
f 63/1/1 48/1/1 62/1/1
f 64/1/1 48/1/1 63/1/1
f 67/1/1 56/1/1 49/1/1
f 68/1/1 56/1/1 67/1/1
f 69/1/1 56/1/1 68/1/1
f 70/4/1 58/4/1 57/4/1
f 70/1/1 56/1/1 69/1/1
f 70/4/1 57/4/1 56/4/1
f 71/4/1 58/4/1 70/4/1
f 72/4/1 58/4/1 71/4/1
f 73/1/1 61/1/1 60/1/1
f 73/1/1 62/1/1 61/1/1
f 73/5/1 63/5/1 62/5/1
f 74/1/1 68/1/1 67/1/1
f 74/5/1 63/5/1 73/5/1
f 74/1/1 66/1/1 65/1/1
f 74/1/1 67/1/1 66/1/1
f 74/1/1 65/1/1 64/1/1
f 74/1/1 64/1/1 63/1/1
f 75/5/1 69/5/1 68/5/1
f 75/1/1 68/1/1 74/1/1
f 76/1/1 71/1/1 70/1/1
f 76/5/1 69/5/1 75/5/1
f 76/1/1 70/1/1 69/1/1
f 77/1/1 74/1/1 73/1/1
f 77/1/1 73/1/1 60/1/1
f 77/1/1 76/1/1 75/1/1
f 77/1/1 75/1/1 74/1/1
f 78/1/1 76/1/1 77/1/1
f 79/1/1 76/1/1 78/1/1
f 80/1/1 76/1/1 79/1/1
f 81/1/1 76/1/1 80/1/1
f 82/1/1 76/1/1 81/1/1
f 83/1/1 71/1/1 76/1/1
f 83/1/1 76/1/1 82/1/1
f 84/1/1 71/1/1 83/1/1
f 85/1/1 71/1/1 84/1/1
f 86/1/1 71/1/1 85/1/1
f 87/1/1 79/1/1 78/1/1
f 88/4/1 80/4/1 79/4/1
f 88/1/1 79/1/1 87/1/1
f 89/1/1 81/1/1 80/1/1
f 89/4/1 80/4/1 88/4/1
f 90/1/1 81/1/1 89/1/1
f 91/1/1 83/1/1 82/1/1
f 92/4/1 84/4/1 83/4/1
f 92/1/1 83/1/1 91/1/1
f 93/1/1 85/1/1 84/1/1
f 93/4/1 84/4/1 92/4/1
f 94/1/1 85/1/1 93/1/1
f 99/1/1 96/1/1 95/1/1
f 100/1/1 96/1/1 99/1/1
f 101/1/1 96/1/1 100/1/1
f 102/1/1 98/1/1 97/1/1
f 103/1/1 98/1/1 102/1/1
f 104/1/1 98/1/1 103/1/1
f 105/4/2 106/4/2 109/4/2
f 109/4/2 106/4/2 110/4/2
f 107/4/2 108/4/2 111/4/2
f 111/4/2 108/4/2 112/4/2
f 113/4/2 114/4/2 117/4/2
f 117/4/2 114/4/2 118/4/2
f 115/4/2 116/4/2 119/4/2
f 119/4/2 116/4/2 120/4/2
f 121/1/2 122/1/2 125/1/2
f 125/1/2 122/1/2 126/1/2
f 123/1/2 124/1/2 127/1/2
f 127/1/2 124/1/2 128/1/2
f 129/1/2 130/1/2 133/1/2
f 133/1/2 130/1/2 134/1/2
f 134/1/2 130/1/2 135/1/2
f 131/1/2 132/1/2 136/1/2
f 136/1/2 132/1/2 137/1/2
f 137/1/2 132/1/2 138/1/2
f 139/1/2 140/1/2 143/1/2
f 143/1/2 140/1/2 144/1/2
f 141/1/2 142/1/2 145/1/2
f 145/1/2 142/1/2 146/1/2
f 143/2/2 144/2/2 147/2/2
f 139/1/2 143/1/2 147/1/2
f 145/2/2 146/2/2 147/2/2
f 144/2/2 145/2/2 147/2/2
f 147/2/2 146/2/2 148/2/2
f 148/2/2 146/2/2 149/2/2
f 146/1/2 142/1/2 150/1/2
f 149/2/2 146/2/2 150/2/2
f 148/2/2 149/2/2 151/2/2
f 147/1/2 148/1/2 151/1/2
f 151/2/2 149/2/2 152/2/2
f 152/2/2 149/2/2 153/2/2
f 149/1/2 150/1/2 154/1/2
f 153/2/2 149/2/2 154/2/2
f 152/2/2 153/2/2 155/2/2
f 151/1/2 152/1/2 155/1/2
f 153/1/2 154/1/2 156/1/2
f 155/2/2 153/2/2 156/2/2
f 155/1/2 156/1/2 157/1/2
f 157/1/2 156/1/2 158/1/2
f 155/1/2 157/1/2 159/1/2
f 158/1/2 156/1/2 160/1/2
f 139/1/2 147/1/2 161/1/2
f 159/1/2 160/1/2 161/1/2
f 147/1/2 151/1/2 161/1/2
f 151/1/2 155/1/2 161/1/2
f 155/1/2 159/1/2 161/1/2
f 150/1/2 142/1/2 162/1/2
f 161/1/2 160/1/2 162/1/2
f 160/1/2 156/1/2 162/1/2
f 156/1/2 154/1/2 162/1/2
f 154/1/2 150/1/2 162/1/2
f 163/1/2 164/1/2 165/1/2
f 165/1/2 164/1/2 166/1/2
f 171/4/3 168/4/3 167/4/3
f 172/4/3 168/4/3 171/4/3
f 173/4/3 170/4/3 169/4/3
f 174/4/3 170/4/3 173/4/3
f 181/1/3 176/1/3 175/1/3
f 182/1/3 178/1/3 177/1/3
f 183/1/3 178/1/3 182/1/3
f 184/1/3 180/1/3 179/1/3
f 185/1/3 183/1/3 182/1/3
f 185/1/3 184/1/3 183/1/3
f 185/1/3 181/1/3 175/1/3
f 185/1/3 182/1/3 181/1/3
f 186/1/3 184/1/3 185/1/3
f 187/1/3 184/1/3 186/1/3
f 189/2/3 187/2/3 186/2/3
f 190/2/3 187/2/3 189/2/3
f 190/1/3 189/1/3 188/1/3
f 191/1/3 184/1/3 187/1/3
f 191/2/3 187/2/3 190/2/3
f 192/1/3 190/1/3 188/1/3
f 192/1/3 191/1/3 190/1/3
f 193/1/3 180/1/3 184/1/3
f 193/1/3 191/1/3 192/1/3
f 193/1/3 184/1/3 191/1/3
f 197/1/3 195/1/3 194/1/3
f 198/1/3 197/1/3 196/1/3
f 199/1/3 195/1/3 197/1/3
f 199/1/3 197/1/3 198/1/3
f 202/1/3 201/1/3 200/1/3
f 203/1/3 201/1/3 202/1/3
f 206/1/3 205/1/3 204/1/3
f 207/1/3 205/1/3 206/1/3
f 211/1/3 209/1/3 208/1/3
f 212/1/3 211/1/3 210/1/3
f 213/1/3 209/1/3 211/1/3
f 213/1/3 211/1/3 212/1/3
f 216/1/3 215/1/3 214/1/3
f 217/1/3 216/1/3 214/1/3
f 218/1/3 216/1/3 217/1/3
f 221/1/3 220/1/3 219/1/3
f 222/1/3 221/1/3 219/1/3
f 223/1/3 221/1/3 222/1/3
f 224/1/4 225/1/4 226/1/4
f 224/1/4 226/1/4 227/1/4
f 227/1/4 226/1/4 228/1/4
f 229/1/4 230/1/4 231/1/4
f 229/1/4 231/1/4 232/1/4
f 232/1/4 231/1/4 233/1/4
f 234/1/4 235/1/4 237/1/4
f 236/1/4 237/1/4 238/1/4
f 237/1/4 235/1/4 239/1/4
f 238/1/4 237/1/4 239/1/4
f 240/1/4 241/1/4 242/1/4
f 242/1/4 241/1/4 243/1/4
f 244/1/4 245/1/4 246/1/4
f 246/1/4 245/1/4 247/1/4
f 248/1/4 249/1/4 251/1/4
f 250/1/4 251/1/4 252/1/4
f 251/1/4 249/1/4 253/1/4
f 252/1/4 251/1/4 253/1/4
f 254/1/4 255/1/4 260/1/4
f 256/1/4 257/1/4 261/1/4
f 261/1/4 257/1/4 262/1/4
f 258/1/4 259/1/4 263/1/4
f 261/1/4 262/1/4 264/1/4
f 262/1/4 263/1/4 264/1/4
f 254/1/4 260/1/4 264/1/4
f 260/1/4 261/1/4 264/1/4
f 264/1/4 263/1/4 265/1/4
f 265/1/4 263/1/4 266/1/4
f 265/2/4 266/2/4 268/2/4
f 268/2/4 266/2/4 269/2/4
f 267/1/4 268/1/4 269/1/4
f 266/1/4 263/1/4 270/1/4
f 269/2/4 266/2/4 270/2/4
f 267/1/4 269/1/4 271/1/4
f 269/1/4 270/1/4 271/1/4
f 263/1/4 259/1/4 272/1/4
f 271/1/4 270/1/4 272/1/4
f 270/1/4 263/1/4 272/1/4
f 273/4/4 274/4/4 277/4/4
f 277/4/4 274/4/4 278/4/4
f 275/4/4 276/4/4 279/4/4
f 279/4/4 276/4/4 280/4/4
f 285/1/5 282/1/5 281/1/5
f 286/1/5 282/1/5 285/1/5
f 287/1/5 284/1/5 283/1/5
f 288/1/5 284/1/5 287/1/5
f 289/1/5 285/1/5 281/1/5
f 289/2/5 286/2/5 285/2/5
f 290/1/5 282/1/5 286/1/5
f 290/2/5 286/2/5 289/2/5
f 291/2/5 288/2/5 287/2/5
f 291/1/5 287/1/5 283/1/5
f 292/1/5 284/1/5 288/1/5
f 292/2/5 288/2/5 291/2/5
f 293/1/5 289/1/5 281/1/5
f 293/1/5 290/1/5 289/1/5
f 294/1/5 282/1/5 290/1/5
f 294/1/5 290/1/5 293/1/5
f 295/1/5 291/1/5 283/1/5
f 295/1/5 292/1/5 291/1/5
f 296/1/5 284/1/5 292/1/5
f 296/1/5 292/1/5 295/1/5
f 301/1/5 298/1/5 297/1/5
f 302/1/5 298/1/5 301/1/5
f 303/1/5 300/1/5 299/1/5
f 304/1/5 300/1/5 303/1/5
f 305/1/5 301/1/5 297/1/5
f 305/2/5 302/2/5 301/2/5
f 306/1/5 298/1/5 302/1/5
f 306/2/5 302/2/5 305/2/5
f 307/2/5 304/2/5 303/2/5
f 307/1/5 303/1/5 299/1/5
f 308/1/5 300/1/5 304/1/5
f 308/2/5 304/2/5 307/2/5
f 309/1/5 305/1/5 297/1/5
f 309/1/5 306/1/5 305/1/5
f 310/1/5 298/1/5 306/1/5
f 310/1/5 306/1/5 309/1/5
f 311/1/5 307/1/5 299/1/5
f 311/1/5 308/1/5 307/1/5
f 312/1/5 300/1/5 308/1/5
f 312/1/5 308/1/5 311/1/5
f 315/2/5 314/2/5 313/2/5
f 316/2/5 314/2/5 315/2/5
f 319/1/5 316/1/5 315/1/5
f 320/1/5 316/1/5 319/1/5
f 323/2/5 318/2/5 317/2/5
f 324/1/5 320/1/5 319/1/5
f 324/2/5 318/2/5 323/2/5
f 324/1/5 319/1/5 318/1/5
f 324/1/5 321/1/5 320/1/5
f 325/1/5 321/1/5 324/1/5
f 326/1/5 321/1/5 325/1/5
f 327/2/5 322/2/5 321/2/5
f 327/1/5 321/1/5 326/1/5
f 328/2/5 322/2/5 327/2/5
f 329/1/5 326/1/5 325/1/5
f 330/1/5 326/1/5 329/1/5
f 331/2/5 330/2/5 329/2/5
f 332/2/5 330/2/5 331/2/5
f 335/4/5 334/4/5 333/4/5
f 336/4/5 334/4/5 335/4/5
f 339/4/5 338/4/5 337/4/5
f 340/4/5 338/4/5 339/4/5
f 343/1/5 342/1/5 341/1/5
f 344/1/5 342/1/5 343/1/5
f 347/4/5 346/4/5 345/4/5
f 348/4/5 346/4/5 347/4/5
f 351/4/5 350/4/5 349/4/5
f 352/4/5 350/4/5 351/4/5
f 355/1/5 354/1/5 353/1/5
f 356/1/5 354/1/5 355/1/5
f 359/1/5 358/1/5 357/1/5
f 360/1/5 359/1/5 357/1/5
f 361/1/5 360/1/5 357/1/5
f 362/1/5 360/1/5 361/1/5
f 365/1/5 364/1/5 363/1/5
f 366/1/5 365/1/5 363/1/5
f 367/1/5 366/1/5 363/1/5
f 368/1/5 366/1/5 367/1/5
f 369/4/6 370/4/6 371/4/6
f 371/4/6 370/4/6 372/4/6
f 373/4/6 374/4/6 375/4/6
f 375/4/6 374/4/6 376/4/6
f 377/4/6 378/4/6 379/4/6
f 379/4/6 378/4/6 380/4/6
f 381/1/6 382/1/6 383/1/6
f 383/1/6 382/1/6 384/1/6
f 383/4/6 384/4/6 385/4/6
f 385/4/6 384/4/6 386/4/6
f 385/1/6 386/1/6 387/1/6
f 387/1/6 386/1/6 388/1/6
f 389/4/6 390/4/6 391/4/6
f 391/4/6 390/4/6 392/4/6
f 393/1/6 394/1/6 395/1/6
f 395/1/6 394/1/6 396/1/6
f 397/1/6 398/1/6 399/1/6
f 399/1/6 398/1/6 400/1/6
f 400/1/6 398/1/6 402/1/6
f 401/1/6 402/1/6 403/1/6
f 402/1/6 398/1/6 404/1/6
f 403/1/6 402/1/6 404/1/6
f 404/1/6 398/1/6 406/1/6
f 405/1/6 406/1/6 407/1/6
f 406/1/6 398/1/6 408/1/6
f 407/1/6 406/1/6 408/1/6
f 409/1/6 410/1/6 411/1/6
f 411/1/6 410/1/6 412/1/6
f 413/1/6 414/1/6 415/1/6
f 415/1/6 414/1/6 416/1/6
