# MagicaVoxel @ Ephtracy

# group
o 

# material
mtllib TargetGround.mtl
usemtl palette

# normals
vn -1 0 0
vn 1 0 0
vn 0 0 1
vn 0 0 -1
vn 0 -1 0
vn 0 1 0

# texcoords
vt 0.615234 0.5
vt 0.791016 0.5
vt 0.826172 0.5
vt 0.888672 0.5
vt 0.982422 0.5
vt 0.990234 0.5

# verts
v -2 0 2
v -2 0 -2
v -2 4 2
v -2 4 -2
v 2 0 2
v 2 0 -2
v 2 4 2
v 2 4 -2
v -2 0 2
v -2 4 2
v 2 0 2
v 2 4 2
v -2 0 -2
v -2 4 -2
v 2 0 -2
v 2 4 -2
v -2 0 2
v 2 0 2
v -1.9 0 1.9
v -1.7 0 1.9
v 1.7 0 1.9
v 1.9 0 1.9
v -1.9 0 1.7
v -1.7 0 1.7
v 1.7 0 1.7
v 1.9 0 1.7
v -1.9 0 -1.7
v -1.7 0 -1.7
v 1.7 0 -1.7
v 1.9 0 -1.7
v -1.9 0 -1.9
v -1.7 0 -1.9
v 1.7 0 -1.9
v 1.9 0 -1.9
v -2 0 -2
v 2 0 -2
v -2 4 2
v 2 4 2
v -1.9 4 1.9
v 1.9 4 1.9
v -0.3 4 1.6
v 0.3 4 1.6
v -0.4 4 1.5
v -0.3 4 1.5
v -0.2 4 1.5
v 0.2 4 1.5
v 0.3 4 1.5
v 0.4 4 1.5
v -0.5 4 1.4
v -0.4 4 1.4
v -0.3 4 1.4
v -0.2 4 1.4
v 0.2 4 1.4
v 0.3 4 1.4
v 0.4 4 1.4
v 0.5 4 1.4
v -1 4 1.3
v -0.6 4 1.3
v -0.4 4 1.3
v -0.3 4 1.3
v -0.2 4 1.3
v 0.2 4 1.3
v 0.3 4 1.3
v 0.4 4 1.3
v 0.6 4 1.3
v 1 4 1.3
v -1.3 4 1.2
v -1 4 1.2
v -0.9 4 1.2
v -0.7 4 1.2
v -0.6 4 1.2
v -0.5 4 1.2
v -0.2 4 1.2
v -0.0999999 4 1.2
v 0.1 4 1.2
v 0.2 4 1.2
v 0.5 4 1.2
v 0.6 4 1.2
v 0.7 4 1.2
v 0.9 4 1.2
v 1 4 1.2
v 1.3 4 1.2
v -1.2 4 1.1
v -0.9 4 1.1
v -0.7 4 1.1
v -0.5 4 1.1
v 0.5 4 1.1
v 0.7 4 1.1
v 0.9 4 1.1
v 1.2 4 1.1
v -0.4 4 1
v -0.3 4 1
v 0.3 4 1
v 0.4 4 1
v -0.8 4 0.9
v -0.7 4 0.9
v -0.5 4 0.9
v -0.4 4 0.9
v -0.3 4 0.9
v -0.2 4 0.9
v 0.2 4 0.9
v 0.3 4 0.9
v 0.4 4 0.9
v 0.5 4 0.9
v 0.7 4 0.9
v 0.8 4 0.9
v -1.2 4 0.8
v -1.1 4 0.8
v -0.7 4 0.8
v -0.5 4 0.8
v -0.2 4 0.8
v -0.0999999 4 0.8
v 0.1 4 0.8
v 0.2 4 0.8
v 0.5 4 0.8
v 0.7 4 0.8
v 1.1 4 0.8
v 1.2 4 0.8
v -1.3 4 0.7
v -1.2 4 0.7
v -0.8 4 0.7
v -0.6 4 0.7
v -0.5 4 0.7
v -0.4 4 0.7
v -0.3 4 0.7
v 0.3 4 0.7
v 0.4 4 0.7
v 0.5 4 0.7
v 0.6 4 0.7
v 0.8 4 0.7
v 1.2 4 0.7
v 1.3 4 0.7
v -1.1 4 0.6
v -1 4 0.6
v -0.4 4 0.6
v -0.3 4 0.6
v 0.3 4 0.6
v 0.4 4 0.6
v 1 4 0.6
v 1.1 4 0.6
v -1.4 4 0.5
v -1.2 4 0.5
v -1 4 0.5
v -0.8 4 0.5
v -0.7 4 0.5
v -0.6 4 0.5
v -0.5 4 0.5
v -0.4 4 0.5
v 0.4 4 0.5
v 0.5 4 0.5
v 0.6 4 0.5
v 0.7 4 0.5
v 0.8 4 0.5
v 1 4 0.5
v 1.2 4 0.5
v 1.4 4 0.5
v -1.5 4 0.4
v -1.4 4 0.4
v -1.3 4 0.4
v -0.9 4 0.4
v -0.8 4 0.4
v -0.7 4 0.4
v 0.7 4 0.4
v 0.8 4 0.4
v 0.9 4 0.4
v 1.3 4 0.4
v 1.4 4 0.4
v 1.5 4 0.4
v -1.6 4 0.3
v -1.5 4 0.3
v -1.4 4 0.3
v -1.3 4 0.3
v -0.9 4 0.3
v -0.8 4 0.3
v -0.6 4 0.3
v -0.5 4 0.3
v 0.5 4 0.3
v 0.6 4 0.3
v 0.8 4 0.3
v 0.9 4 0.3
v 1.3 4 0.3
v 1.4 4 0.3
v 1.5 4 0.3
v 1.6 4 0.3
v -1.5 4 0.2
v -1.4 4 0.2
v -1.2 4 0.2
v -1.1 4 0.2
v -0.8 4 0.2
v -0.7 4 0.2
v 0.7 4 0.2
v 0.8 4 0.2
v 1.1 4 0.2
v 1.2 4 0.2
v 1.4 4 0.2
v 1.5 4 0.2
v -1.1 4 0.0999999
v -0.7 4 0.0999999
v 0.7 4 0.0999999
v 1.1 4 0.0999999
v -1.1 4 -0.1
v -0.7 4 -0.1
v 0.7 4 -0.1
v 1.1 4 -0.1
v -1.5 4 -0.2
v -1.4 4 -0.2
v -1.2 4 -0.2
v -1.1 4 -0.2
v -0.8 4 -0.2
v -0.7 4 -0.2
v 0.7 4 -0.2
v 0.8 4 -0.2
v 1.1 4 -0.2
v 1.2 4 -0.2
v 1.4 4 -0.2
v 1.5 4 -0.2
v -1.6 4 -0.3
v -1.5 4 -0.3
v -1.4 4 -0.3
v -1.3 4 -0.3
v -0.9 4 -0.3
v -0.8 4 -0.3
v -0.6 4 -0.3
v -0.5 4 -0.3
v 0.5 4 -0.3
v 0.6 4 -0.3
v 0.8 4 -0.3
v 0.9 4 -0.3
v 1.3 4 -0.3
v 1.4 4 -0.3
v 1.5 4 -0.3
v 1.6 4 -0.3
v -1.5 4 -0.4
v -1.4 4 -0.4
v -1.3 4 -0.4
v -0.9 4 -0.4
v -0.8 4 -0.4
v -0.7 4 -0.4
v 0.7 4 -0.4
v 0.8 4 -0.4
v 0.9 4 -0.4
v 1.3 4 -0.4
v 1.4 4 -0.4
v 1.5 4 -0.4
v -1.4 4 -0.5
v -1.2 4 -0.5
v -1 4 -0.5
v -0.8 4 -0.5
v -0.7 4 -0.5
v -0.6 4 -0.5
v -0.5 4 -0.5
v -0.4 4 -0.5
v 0.4 4 -0.5
v 0.5 4 -0.5
v 0.6 4 -0.5
v 0.7 4 -0.5
v 0.8 4 -0.5
v 1 4 -0.5
v 1.2 4 -0.5
v 1.4 4 -0.5
v -1.1 4 -0.6
v -1 4 -0.6
v -0.4 4 -0.6
v -0.3 4 -0.6
v 0.3 4 -0.6
v 0.4 4 -0.6
v 1 4 -0.6
v 1.1 4 -0.6
v -1.3 4 -0.7
v -1.2 4 -0.7
v -0.8 4 -0.7
v -0.6 4 -0.7
v -0.5 4 -0.7
v -0.4 4 -0.7
v -0.3 4 -0.7
v 0.3 4 -0.7
v 0.4 4 -0.7
v 0.5 4 -0.7
v 0.6 4 -0.7
v 0.8 4 -0.7
v 1.2 4 -0.7
v 1.3 4 -0.7
v -1.2 4 -0.8
v -1.1 4 -0.8
v -0.7 4 -0.8
v -0.5 4 -0.8
v -0.2 4 -0.8
v -0.0999999 4 -0.8
v 0.1 4 -0.8
v 0.2 4 -0.8
v 0.5 4 -0.8
v 0.7 4 -0.8
v 1.1 4 -0.8
v 1.2 4 -0.8
v -0.8 4 -0.9
v -0.7 4 -0.9
v -0.5 4 -0.9
v -0.4 4 -0.9
v -0.3 4 -0.9
v -0.2 4 -0.9
v 0.2 4 -0.9
v 0.3 4 -0.9
v 0.4 4 -0.9
v 0.5 4 -0.9
v 0.7 4 -0.9
v 0.8 4 -0.9
v -0.4 4 -1
v -0.3 4 -1
v 0.3 4 -1
v 0.4 4 -1
v -1.2 4 -1.1
v -0.9 4 -1.1
v -0.7 4 -1.1
v -0.5 4 -1.1
v 0.5 4 -1.1
v 0.7 4 -1.1
v 0.9 4 -1.1
v 1.2 4 -1.1
v -1.3 4 -1.2
v -1 4 -1.2
v -0.9 4 -1.2
v -0.7 4 -1.2
v -0.6 4 -1.2
v -0.5 4 -1.2
v -0.2 4 -1.2
v -0.0999999 4 -1.2
v 0.1 4 -1.2
v 0.2 4 -1.2
v 0.5 4 -1.2
v 0.6 4 -1.2
v 0.7 4 -1.2
v 0.9 4 -1.2
v 1 4 -1.2
v 1.3 4 -1.2
v -1 4 -1.3
v -0.6 4 -1.3
v -0.4 4 -1.3
v -0.3 4 -1.3
v -0.2 4 -1.3
v 0.2 4 -1.3
v 0.3 4 -1.3
v 0.4 4 -1.3
v 0.6 4 -1.3
v 1 4 -1.3
v -0.5 4 -1.4
v -0.4 4 -1.4
v -0.3 4 -1.4
v -0.2 4 -1.4
v 0.2 4 -1.4
v 0.3 4 -1.4
v 0.4 4 -1.4
v 0.5 4 -1.4
v -0.4 4 -1.5
v -0.3 4 -1.5
v -0.2 4 -1.5
v 0.2 4 -1.5
v 0.3 4 -1.5
v 0.4 4 -1.5
v -0.3 4 -1.6
v 0.3 4 -1.6
v -1.9 4 -1.9
v 1.9 4 -1.9
v -2 4 -2
v 2 4 -2

# faces
f 3/3/1 2/3/1 1/3/1
f 4/3/1 2/3/1 3/3/1
f 5/3/2 6/3/2 7/3/2
f 7/3/2 6/3/2 8/3/2
f 11/3/3 10/3/3 9/3/3
f 12/3/3 10/3/3 11/3/3
f 13/3/4 14/3/4 15/3/4
f 15/3/4 14/3/4 16/3/4
f 19/3/5 18/3/5 17/3/5
f 20/3/5 18/3/5 19/3/5
f 21/3/5 18/3/5 20/3/5
f 22/3/5 18/3/5 21/3/5
f 23/3/5 19/3/5 17/3/5
f 23/5/5 20/5/5 19/5/5
f 24/6/5 21/6/5 20/6/5
f 24/5/5 20/5/5 23/5/5
f 25/5/5 22/5/5 21/5/5
f 25/6/5 21/6/5 24/6/5
f 26/3/5 18/3/5 22/3/5
f 26/5/5 22/5/5 25/5/5
f 27/6/5 25/6/5 24/6/5
f 27/6/5 24/6/5 23/6/5
f 27/6/5 26/6/5 25/6/5
f 27/3/5 23/3/5 17/3/5
f 28/6/5 26/6/5 27/6/5
f 29/6/5 26/6/5 28/6/5
f 30/3/5 18/3/5 26/3/5
f 30/6/5 26/6/5 29/6/5
f 31/3/5 27/3/5 17/3/5
f 31/5/5 28/5/5 27/5/5
f 32/6/5 29/6/5 28/6/5
f 32/5/5 28/5/5 31/5/5
f 33/5/5 30/5/5 29/5/5
f 33/6/5 29/6/5 32/6/5
f 34/3/5 18/3/5 30/3/5
f 34/5/5 30/5/5 33/5/5
f 35/3/5 31/3/5 17/3/5
f 35/3/5 33/3/5 32/3/5
f 35/3/5 34/3/5 33/3/5
f 35/3/5 32/3/5 31/3/5
f 36/3/5 18/3/5 34/3/5
f 36/3/5 34/3/5 35/3/5
f 37/3/6 38/3/6 39/3/6
f 39/3/6 38/3/6 40/3/6
f 39/4/6 40/4/6 41/4/6
f 41/4/6 40/4/6 42/4/6
f 39/4/6 41/4/6 43/4/6
f 41/2/6 42/2/6 44/2/6
f 43/4/6 41/4/6 44/4/6
f 44/2/6 42/2/6 45/2/6
f 45/2/6 42/2/6 46/2/6
f 42/4/6 40/4/6 47/4/6
f 46/2/6 42/2/6 47/2/6
f 47/4/6 40/4/6 48/4/6
f 39/4/6 43/4/6 49/4/6
f 43/2/6 44/2/6 50/2/6
f 49/4/6 43/4/6 50/4/6
f 44/2/6 45/2/6 50/2/6
f 50/2/6 45/2/6 51/2/6
f 45/4/6 46/4/6 52/4/6
f 51/2/6 45/2/6 52/2/6
f 47/2/6 48/2/6 53/2/6
f 52/4/6 46/4/6 53/4/6
f 46/2/6 47/2/6 53/2/6
f 53/2/6 48/2/6 54/2/6
f 48/4/6 40/4/6 55/4/6
f 54/2/6 48/2/6 55/2/6
f 55/4/6 40/4/6 56/4/6
f 39/4/6 49/4/6 57/4/6
f 57/4/6 49/4/6 58/4/6
f 50/2/6 51/2/6 59/2/6
f 49/2/6 50/2/6 59/2/6
f 53/4/6 54/4/6 60/4/6
f 59/2/6 51/2/6 60/2/6
f 51/4/6 52/4/6 60/4/6
f 52/4/6 53/4/6 60/4/6
f 60/4/6 54/4/6 61/4/6
f 61/4/6 54/4/6 62/4/6
f 55/2/6 56/2/6 63/2/6
f 62/4/6 54/4/6 63/4/6
f 54/2/6 55/2/6 63/2/6
f 63/2/6 56/2/6 64/2/6
f 56/4/6 40/4/6 65/4/6
f 65/4/6 40/4/6 66/4/6
f 39/4/6 57/4/6 67/4/6
f 57/2/6 58/2/6 68/2/6
f 67/4/6 57/4/6 68/4/6
f 68/2/6 58/2/6 69/2/6
f 69/2/6 58/2/6 70/2/6
f 58/4/6 49/4/6 71/4/6
f 70/2/6 58/2/6 71/2/6
f 49/2/6 59/2/6 72/2/6
f 71/4/6 49/4/6 72/4/6
f 61/2/6 62/2/6 73/2/6
f 60/4/6 61/4/6 73/4/6
f 59/4/6 60/4/6 73/4/6
f 73/2/6 62/2/6 74/2/6
f 74/2/6 62/2/6 75/2/6
f 62/4/6 63/4/6 76/4/6
f 75/2/6 62/2/6 76/2/6
f 63/4/6 64/4/6 76/4/6
f 64/2/6 56/2/6 77/2/6
f 56/4/6 65/4/6 77/4/6
f 65/2/6 66/2/6 78/2/6
f 77/4/6 65/4/6 78/4/6
f 78/2/6 66/2/6 79/2/6
f 79/2/6 66/2/6 80/2/6
f 66/4/6 40/4/6 81/4/6
f 80/2/6 66/2/6 81/2/6
f 81/4/6 40/4/6 82/4/6
f 68/2/6 69/2/6 83/2/6
f 67/2/6 68/2/6 83/2/6
f 69/4/6 70/4/6 84/4/6
f 83/2/6 69/2/6 84/2/6
f 70/2/6 71/2/6 85/2/6
f 84/4/6 70/4/6 85/4/6
f 71/2/6 72/2/6 85/2/6
f 72/2/6 59/2/6 86/2/6
f 85/2/6 72/2/6 86/2/6
f 64/2/6 77/2/6 87/2/6
f 77/2/6 78/2/6 87/2/6
f 78/2/6 79/2/6 87/2/6
f 79/4/6 80/4/6 88/4/6
f 87/2/6 79/2/6 88/2/6
f 80/2/6 81/2/6 89/2/6
f 88/4/6 80/4/6 89/4/6
f 81/2/6 82/2/6 89/2/6
f 89/2/6 82/2/6 90/2/6
f 73/4/6 74/4/6 91/4/6
f 86/2/6 59/2/6 91/2/6
f 59/4/6 73/4/6 91/4/6
f 91/4/6 74/4/6 92/4/6
f 76/4/6 64/4/6 93/4/6
f 75/4/6 76/4/6 93/4/6
f 64/2/6 87/2/6 94/2/6
f 93/4/6 64/4/6 94/4/6
f 83/4/6 84/4/6 95/4/6
f 84/4/6 85/4/6 95/4/6
f 85/4/6 86/4/6 95/4/6
f 95/4/6 86/4/6 96/4/6
f 91/2/6 92/2/6 97/2/6
f 96/4/6 86/4/6 97/4/6
f 86/2/6 91/2/6 97/2/6
f 97/2/6 92/2/6 98/2/6
f 92/4/6 74/4/6 99/4/6
f 98/2/6 92/2/6 99/2/6
f 99/4/6 74/4/6 100/4/6
f 75/4/6 93/4/6 101/4/6
f 93/2/6 94/2/6 102/2/6
f 101/4/6 93/4/6 102/4/6
f 94/2/6 87/2/6 103/2/6
f 102/2/6 94/2/6 103/2/6
f 87/4/6 88/4/6 104/4/6
f 103/2/6 87/2/6 104/2/6
f 89/4/6 90/4/6 104/4/6
f 88/4/6 89/4/6 104/4/6
f 104/4/6 90/4/6 105/4/6
f 105/4/6 90/4/6 106/4/6
f 67/2/6 83/2/6 107/2/6
f 83/4/6 95/4/6 107/4/6
f 107/4/6 95/4/6 108/4/6
f 97/4/6 98/4/6 109/4/6
f 95/2/6 96/2/6 109/2/6
f 96/4/6 97/4/6 109/4/6
f 109/4/6 98/4/6 110/4/6
f 100/4/6 74/4/6 111/4/6
f 99/2/6 100/2/6 111/2/6
f 98/2/6 99/2/6 111/2/6
f 74/2/6 75/2/6 112/2/6
f 111/4/6 74/4/6 112/4/6
f 75/4/6 101/4/6 113/4/6
f 112/2/6 75/2/6 113/2/6
f 101/2/6 102/2/6 114/2/6
f 113/4/6 101/4/6 114/4/6
f 102/2/6 103/2/6 114/2/6
f 104/4/6 105/4/6 115/4/6
f 103/4/6 104/4/6 115/4/6
f 105/2/6 106/2/6 116/2/6
f 115/4/6 105/4/6 116/4/6
f 106/4/6 90/4/6 117/4/6
f 90/2/6 82/2/6 118/2/6
f 117/4/6 90/4/6 118/4/6
f 39/4/6 67/4/6 119/4/6
f 107/2/6 108/2/6 119/2/6
f 67/2/6 107/2/6 119/2/6
f 119/2/6 108/2/6 120/2/6
f 108/4/6 95/4/6 121/4/6
f 109/2/6 110/2/6 121/2/6
f 95/2/6 109/2/6 121/2/6
f 121/2/6 110/2/6 122/2/6
f 110/4/6 98/4/6 123/4/6
f 122/2/6 110/2/6 123/2/6
f 112/2/6 113/2/6 124/2/6
f 123/4/6 98/4/6 124/4/6
f 111/2/6 112/2/6 124/2/6
f 98/2/6 111/2/6 124/2/6
f 113/2/6 114/2/6 124/2/6
f 124/2/6 114/2/6 125/2/6
f 114/2/6 103/2/6 126/2/6
f 125/2/6 114/2/6 126/2/6
f 103/4/6 115/4/6 127/4/6
f 126/2/6 103/2/6 127/2/6
f 115/2/6 116/2/6 128/2/6
f 127/4/6 115/4/6 128/4/6
f 128/2/6 116/2/6 129/2/6
f 116/2/6 106/2/6 130/2/6
f 129/2/6 116/2/6 130/2/6
f 106/4/6 117/4/6 130/4/6
f 118/2/6 82/2/6 131/2/6
f 117/2/6 118/2/6 131/2/6
f 82/4/6 40/4/6 132/4/6
f 131/2/6 82/2/6 132/2/6
f 120/2/6 108/2/6 133/2/6
f 121/4/6 122/4/6 133/4/6
f 108/4/6 121/4/6 133/4/6
f 133/4/6 122/4/6 134/4/6
f 122/2/6 123/2/6 135/2/6
f 123/2/6 124/2/6 135/2/6
f 124/2/6 125/2/6 135/2/6
f 125/4/6 126/4/6 136/4/6
f 135/2/6 125/2/6 136/2/6
f 128/2/6 129/2/6 137/2/6
f 136/4/6 126/4/6 137/4/6
f 126/2/6 127/2/6 137/2/6
f 127/2/6 128/2/6 137/2/6
f 137/2/6 129/2/6 138/2/6
f 130/4/6 117/4/6 139/4/6
f 129/4/6 130/4/6 139/4/6
f 117/2/6 131/2/6 140/2/6
f 139/4/6 117/4/6 140/4/6
f 39/4/6 119/4/6 141/4/6
f 119/4/6 120/4/6 141/4/6
f 133/2/6 134/2/6 142/2/6
f 141/4/6 120/4/6 142/4/6
f 120/2/6 133/2/6 142/2/6
f 134/4/6 122/4/6 143/4/6
f 142/2/6 134/2/6 143/2/6
f 143/4/6 122/4/6 144/4/6
f 144/4/6 122/4/6 145/4/6
f 122/2/6 135/2/6 146/2/6
f 145/4/6 122/4/6 146/4/6
f 146/2/6 135/2/6 147/2/6
f 135/4/6 136/4/6 148/4/6
f 147/2/6 135/2/6 148/2/6
f 136/4/6 137/4/6 148/4/6
f 137/4/6 138/4/6 148/4/6
f 138/2/6 129/2/6 149/2/6
f 148/4/6 138/4/6 149/4/6
f 149/2/6 129/2/6 150/2/6
f 129/4/6 139/4/6 151/4/6
f 150/2/6 129/2/6 151/2/6
f 151/4/6 139/4/6 152/4/6
f 152/4/6 139/4/6 153/4/6
f 139/2/6 140/2/6 154/2/6
f 153/4/6 139/4/6 154/4/6
f 131/4/6 132/4/6 155/4/6
f 154/2/6 140/2/6 155/2/6
f 140/2/6 131/2/6 155/2/6
f 132/4/6 40/4/6 156/4/6
f 155/4/6 132/4/6 156/4/6
f 39/4/6 141/4/6 157/4/6
f 141/2/6 142/2/6 158/2/6
f 157/4/6 141/4/6 158/4/6
f 143/2/6 144/2/6 158/2/6
f 142/2/6 143/2/6 158/2/6
f 158/2/6 144/2/6 159/2/6
f 159/2/6 144/2/6 160/2/6
f 144/4/6 145/4/6 161/4/6
f 160/2/6 144/2/6 161/2/6
f 146/2/6 147/2/6 162/2/6
f 161/4/6 145/4/6 162/4/6
f 145/2/6 146/2/6 162/2/6
f 151/2/6 152/2/6 163/2/6
f 152/4/6 153/4/6 163/4/6
f 150/2/6 151/2/6 163/2/6
f 154/2/6 155/2/6 164/2/6
f 163/4/6 153/4/6 164/4/6
f 153/2/6 154/2/6 164/2/6
f 155/2/6 156/2/6 164/2/6
f 164/2/6 156/2/6 165/2/6
f 165/2/6 156/2/6 166/2/6
f 156/4/6 40/4/6 167/4/6
f 166/2/6 156/2/6 167/2/6
f 167/4/6 40/4/6 168/4/6
f 39/4/6 157/4/6 169/4/6
f 158/2/6 159/2/6 170/2/6
f 169/4/6 157/4/6 170/4/6
f 157/2/6 158/2/6 170/2/6
f 170/2/6 159/2/6 171/2/6
f 159/4/6 160/4/6 172/4/6
f 171/2/6 159/2/6 172/2/6
f 160/2/6 161/2/6 173/2/6
f 172/4/6 160/4/6 173/4/6
f 161/2/6 162/2/6 173/2/6
f 173/2/6 162/2/6 174/2/6
f 162/2/6 147/2/6 175/2/6
f 174/2/6 162/2/6 175/2/6
f 148/4/6 149/4/6 176/4/6
f 175/2/6 147/2/6 176/2/6
f 147/4/6 148/4/6 176/4/6
f 149/4/6 150/4/6 176/4/6
f 150/2/6 163/2/6 177/2/6
f 176/4/6 150/4/6 177/4/6
f 163/2/6 164/2/6 177/2/6
f 164/2/6 165/2/6 177/2/6
f 177/2/6 165/2/6 178/2/6
f 178/2/6 165/2/6 179/2/6
f 165/4/6 166/4/6 180/4/6
f 179/2/6 165/2/6 180/2/6
f 166/2/6 167/2/6 181/2/6
f 180/4/6 166/4/6 181/4/6
f 167/2/6 168/2/6 181/2/6
f 181/2/6 168/2/6 182/2/6
f 168/4/6 40/4/6 183/4/6
f 182/2/6 168/2/6 183/2/6
f 183/4/6 40/4/6 184/4/6
f 170/2/6 171/2/6 185/2/6
f 169/2/6 170/2/6 185/2/6
f 171/4/6 172/4/6 186/4/6
f 185/2/6 171/2/6 186/2/6
f 172/4/6 173/4/6 186/4/6
f 173/4/6 174/4/6 186/4/6
f 186/4/6 174/4/6 187/4/6
f 187/4/6 174/4/6 188/4/6
f 174/2/6 175/2/6 189/2/6
f 188/4/6 174/4/6 189/4/6
f 189/2/6 175/2/6 190/2/6
f 178/2/6 179/2/6 191/2/6
f 181/4/6 182/4/6 192/4/6
f 191/2/6 179/2/6 192/2/6
f 179/4/6 180/4/6 192/4/6
f 180/4/6 181/4/6 192/4/6
f 192/4/6 182/4/6 193/4/6
f 193/4/6 182/4/6 194/4/6
f 182/2/6 183/2/6 195/2/6
f 194/4/6 182/4/6 195/4/6
f 183/2/6 184/2/6 195/2/6
f 195/2/6 184/2/6 196/2/6
f 187/2/6 188/2/6 197/2/6
f 189/4/6 190/4/6 197/4/6
f 188/4/6 189/4/6 197/4/6
f 190/2/6 175/2/6 198/2/6
f 197/4/6 190/4/6 198/4/6
f 178/2/6 191/2/6 199/2/6
f 192/4/6 193/4/6 199/4/6
f 191/4/6 192/4/6 199/4/6
f 193/2/6 194/2/6 200/2/6
f 199/4/6 193/4/6 200/4/6
f 187/2/6 197/2/6 201/2/6
f 197/2/6 198/2/6 201/2/6
f 198/2/6 175/2/6 202/2/6
f 201/2/6 198/2/6 202/2/6
f 178/2/6 199/2/6 203/2/6
f 199/2/6 200/2/6 203/2/6
f 200/2/6 194/2/6 204/2/6
f 203/2/6 200/2/6 204/2/6
f 169/2/6 185/2/6 205/2/6
f 185/4/6 186/4/6 205/4/6
f 186/4/6 187/4/6 205/4/6
f 205/4/6 187/4/6 206/4/6
f 187/2/6 201/2/6 207/2/6
f 206/4/6 187/4/6 207/4/6
f 201/4/6 202/4/6 208/4/6
f 207/2/6 201/2/6 208/2/6
f 208/4/6 202/4/6 209/4/6
f 202/2/6 175/2/6 210/2/6
f 209/4/6 202/4/6 210/4/6
f 178/2/6 203/2/6 211/2/6
f 203/4/6 204/4/6 211/4/6
f 211/4/6 204/4/6 212/4/6
f 204/2/6 194/2/6 213/2/6
f 212/4/6 204/4/6 213/4/6
f 195/4/6 196/4/6 214/4/6
f 213/2/6 194/2/6 214/2/6
f 194/4/6 195/4/6 214/4/6
f 214/4/6 196/4/6 215/4/6
f 196/2/6 184/2/6 216/2/6
f 215/4/6 196/4/6 216/4/6
f 205/2/6 206/2/6 217/2/6
f 39/4/6 169/4/6 217/4/6
f 169/2/6 205/2/6 217/2/6
f 217/2/6 206/2/6 218/2/6
f 208/4/6 209/4/6 219/4/6
f 218/2/6 206/2/6 219/2/6
f 206/4/6 207/4/6 219/4/6
f 207/4/6 208/4/6 219/4/6
f 219/4/6 209/4/6 220/4/6
f 220/4/6 209/4/6 221/4/6
f 209/2/6 210/2/6 222/2/6
f 221/4/6 209/4/6 222/4/6
f 175/4/6 176/4/6 223/4/6
f 222/2/6 210/2/6 223/2/6
f 210/2/6 175/2/6 223/2/6
f 177/4/6 178/4/6 223/4/6
f 176/4/6 177/4/6 223/4/6
f 223/4/6 178/4/6 224/4/6
f 224/4/6 178/4/6 225/4/6
f 211/2/6 212/2/6 226/2/6
f 225/4/6 178/4/6 226/4/6
f 178/2/6 211/2/6 226/2/6
f 214/4/6 215/4/6 227/4/6
f 226/2/6 212/2/6 227/2/6
f 212/4/6 213/4/6 227/4/6
f 213/4/6 214/4/6 227/4/6
f 227/4/6 215/4/6 228/4/6
f 228/4/6 215/4/6 229/4/6
f 215/2/6 216/2/6 230/2/6
f 229/4/6 215/4/6 230/4/6
f 216/2/6 184/2/6 231/2/6
f 230/2/6 216/2/6 231/2/6
f 184/4/6 40/4/6 232/4/6
f 231/2/6 184/2/6 232/2/6
f 217/4/6 218/4/6 233/4/6
f 219/2/6 220/2/6 233/2/6
f 218/2/6 219/2/6 233/2/6
f 233/2/6 220/2/6 234/2/6
f 220/4/6 221/4/6 235/4/6
f 234/2/6 220/2/6 235/2/6
f 221/2/6 222/2/6 236/2/6
f 235/4/6 221/4/6 236/4/6
f 222/2/6 223/2/6 236/2/6
f 223/2/6 224/2/6 236/2/6
f 236/2/6 224/2/6 237/2/6
f 237/2/6 224/2/6 238/2/6
f 225/2/6 226/2/6 239/2/6
f 226/2/6 227/2/6 239/2/6
f 227/2/6 228/2/6 239/2/6
f 239/2/6 228/2/6 240/2/6
f 228/4/6 229/4/6 241/4/6
f 240/2/6 228/2/6 241/2/6
f 229/2/6 230/2/6 242/2/6
f 241/4/6 229/4/6 242/4/6
f 230/2/6 231/2/6 242/2/6
f 242/2/6 231/2/6 243/2/6
f 231/4/6 232/4/6 244/4/6
f 243/2/6 231/2/6 244/2/6
f 234/2/6 235/2/6 245/2/6
f 236/2/6 237/2/6 245/2/6
f 233/4/6 234/4/6 245/4/6
f 235/2/6 236/2/6 245/2/6
f 245/2/6 237/2/6 246/2/6
f 246/2/6 237/2/6 247/2/6
f 237/4/6 238/4/6 248/4/6
f 247/2/6 237/2/6 248/2/6
f 238/2/6 224/2/6 249/2/6
f 248/4/6 238/4/6 249/4/6
f 249/2/6 224/2/6 250/2/6
f 224/4/6 225/4/6 251/4/6
f 250/2/6 224/2/6 251/2/6
f 251/4/6 225/4/6 252/4/6
f 252/4/6 225/4/6 253/4/6
f 225/2/6 239/2/6 254/2/6
f 253/4/6 225/4/6 254/4/6
f 254/2/6 239/2/6 255/2/6
f 239/4/6 240/4/6 256/4/6
f 255/2/6 239/2/6 256/2/6
f 240/2/6 241/2/6 257/2/6
f 256/4/6 240/4/6 257/4/6
f 242/2/6 243/2/6 257/2/6
f 241/2/6 242/2/6 257/2/6
f 257/2/6 243/2/6 258/2/6
f 258/2/6 243/2/6 259/2/6
f 243/4/6 244/4/6 260/4/6
f 259/2/6 243/2/6 260/2/6
f 246/2/6 247/2/6 261/2/6
f 249/4/6 250/4/6 262/4/6
f 261/2/6 247/2/6 262/2/6
f 247/4/6 248/4/6 262/4/6
f 248/4/6 249/4/6 262/4/6
f 252/4/6 253/4/6 263/4/6
f 251/2/6 252/2/6 263/2/6
f 250/2/6 251/2/6 263/2/6
f 263/4/6 253/4/6 264/4/6
f 264/4/6 253/4/6 265/4/6
f 253/2/6 254/2/6 266/2/6
f 265/4/6 253/4/6 266/4/6
f 254/2/6 255/2/6 266/2/6
f 255/4/6 256/4/6 267/4/6
f 258/2/6 259/2/6 267/2/6
f 257/4/6 258/4/6 267/4/6
f 256/4/6 257/4/6 267/4/6
f 267/2/6 259/2/6 268/2/6
f 245/4/6 246/4/6 269/4/6
f 246/2/6 261/2/6 270/2/6
f 269/4/6 246/4/6 270/4/6
f 262/4/6 250/4/6 271/4/6
f 261/4/6 262/4/6 271/4/6
f 263/2/6 264/2/6 272/2/6
f 271/4/6 250/4/6 272/4/6
f 250/2/6 263/2/6 272/2/6
f 272/2/6 264/2/6 273/2/6
f 273/2/6 264/2/6 274/2/6
f 264/4/6 265/4/6 275/4/6
f 274/2/6 264/2/6 275/2/6
f 265/2/6 266/2/6 276/2/6
f 275/4/6 265/4/6 276/4/6
f 266/2/6 255/2/6 277/2/6
f 276/2/6 266/2/6 277/2/6
f 277/2/6 255/2/6 278/2/6
f 267/4/6 268/4/6 279/4/6
f 278/2/6 255/2/6 279/2/6
f 255/4/6 267/4/6 279/4/6
f 279/4/6 268/4/6 280/4/6
f 259/4/6 260/4/6 281/4/6
f 268/2/6 259/2/6 281/2/6
f 281/4/6 260/4/6 282/4/6
f 270/2/6 261/2/6 283/2/6
f 269/2/6 270/2/6 283/2/6
f 261/4/6 271/4/6 284/4/6
f 283/2/6 261/2/6 284/2/6
f 271/2/6 272/2/6 285/2/6
f 272/2/6 273/2/6 285/2/6
f 273/4/6 274/4/6 286/4/6
f 285/2/6 273/2/6 286/2/6
f 275/2/6 276/2/6 287/2/6
f 274/2/6 275/2/6 287/2/6
f 276/2/6 277/2/6 287/2/6
f 287/2/6 277/2/6 288/2/6
f 288/2/6 277/2/6 289/2/6
f 289/2/6 277/2/6 290/2/6
f 279/2/6 280/2/6 291/2/6
f 277/4/6 278/4/6 291/4/6
f 278/2/6 279/2/6 291/2/6
f 291/2/6 280/2/6 292/2/6
f 280/4/6 268/4/6 293/4/6
f 281/2/6 282/2/6 293/2/6
f 268/2/6 281/2/6 293/2/6
f 293/2/6 282/2/6 294/2/6
f 271/2/6 285/2/6 295/2/6
f 284/4/6 271/4/6 295/4/6
f 283/4/6 284/4/6 295/4/6
f 285/4/6 286/4/6 296/4/6
f 295/2/6 285/2/6 296/2/6
f 286/4/6 274/4/6 297/4/6
f 296/4/6 286/4/6 297/4/6
f 274/2/6 287/2/6 298/2/6
f 297/4/6 274/4/6 298/4/6
f 298/2/6 287/2/6 299/2/6
f 287/4/6 288/4/6 300/4/6
f 299/2/6 287/2/6 300/2/6
f 290/2/6 277/2/6 301/2/6
f 289/4/6 290/4/6 301/4/6
f 301/2/6 277/2/6 302/2/6
f 291/4/6 292/4/6 303/4/6
f 302/2/6 277/2/6 303/2/6
f 277/4/6 291/4/6 303/4/6
f 303/4/6 292/4/6 304/4/6
f 292/2/6 280/2/6 305/2/6
f 304/4/6 292/4/6 305/4/6
f 293/4/6 294/4/6 306/4/6
f 305/2/6 280/2/6 306/2/6
f 280/4/6 293/4/6 306/4/6
f 298/2/6 299/2/6 307/2/6
f 297/2/6 298/2/6 307/2/6
f 299/4/6 300/4/6 308/4/6
f 307/2/6 299/2/6 308/2/6
f 303/2/6 304/2/6 309/2/6
f 301/4/6 302/4/6 309/4/6
f 302/2/6 303/2/6 309/2/6
f 309/2/6 304/2/6 310/2/6
f 295/4/6 296/4/6 311/4/6
f 269/2/6 283/2/6 311/2/6
f 283/4/6 295/4/6 311/4/6
f 296/4/6 297/4/6 311/4/6
f 311/4/6 297/4/6 312/4/6
f 312/4/6 297/4/6 313/4/6
f 297/2/6 307/2/6 314/2/6
f 313/4/6 297/4/6 314/4/6
f 310/2/6 304/2/6 315/2/6
f 304/4/6 305/4/6 315/4/6
f 305/4/6 306/4/6 315/4/6
f 315/4/6 306/4/6 316/4/6
f 306/4/6 294/4/6 317/4/6
f 316/4/6 306/4/6 317/4/6
f 294/2/6 282/2/6 318/2/6
f 317/4/6 294/4/6 318/4/6
f 245/4/6 269/4/6 319/4/6
f 311/2/6 312/2/6 319/2/6
f 269/2/6 311/2/6 319/2/6
f 319/2/6 312/2/6 320/2/6
f 312/4/6 313/4/6 321/4/6
f 320/2/6 312/2/6 321/2/6
f 313/2/6 314/2/6 322/2/6
f 321/4/6 313/4/6 322/4/6
f 322/2/6 314/2/6 323/2/6
f 314/2/6 307/2/6 324/2/6
f 323/2/6 314/2/6 324/2/6
f 308/4/6 300/4/6 325/4/6
f 307/4/6 308/4/6 325/4/6
f 300/4/6 288/4/6 325/4/6
f 288/2/6 289/2/6 326/2/6
f 325/4/6 288/4/6 326/4/6
f 309/4/6 310/4/6 327/4/6
f 326/2/6 289/2/6 327/2/6
f 301/4/6 309/4/6 327/4/6
f 289/4/6 301/4/6 327/4/6
f 327/4/6 310/4/6 328/4/6
f 310/2/6 315/2/6 329/2/6
f 315/2/6 316/2/6 329/2/6
f 329/2/6 316/2/6 330/2/6
f 316/4/6 317/4/6 331/4/6
f 330/2/6 316/2/6 331/2/6
f 317/2/6 318/2/6 332/2/6
f 331/4/6 317/4/6 332/4/6
f 332/2/6 318/2/6 333/2/6
f 318/2/6 282/2/6 334/2/6
f 333/2/6 318/2/6 334/2/6
f 282/4/6 260/4/6 334/4/6
f 322/2/6 323/2/6 335/2/6
f 321/2/6 322/2/6 335/2/6
f 319/4/6 320/4/6 335/4/6
f 320/2/6 321/2/6 335/2/6
f 323/4/6 324/4/6 336/4/6
f 335/2/6 323/2/6 336/2/6
f 324/2/6 307/2/6 337/2/6
f 307/4/6 325/4/6 337/4/6
f 337/4/6 325/4/6 338/4/6
f 325/2/6 326/2/6 339/2/6
f 338/4/6 325/4/6 339/4/6
f 326/2/6 327/2/6 339/2/6
f 327/2/6 328/2/6 339/2/6
f 328/4/6 310/4/6 340/4/6
f 339/2/6 328/2/6 340/2/6
f 340/4/6 310/4/6 341/4/6
f 310/2/6 329/2/6 342/2/6
f 341/4/6 310/4/6 342/4/6
f 332/2/6 333/2/6 343/2/6
f 329/4/6 330/4/6 343/4/6
f 331/2/6 332/2/6 343/2/6
f 330/2/6 331/2/6 343/2/6
f 333/4/6 334/4/6 344/4/6
f 343/2/6 333/2/6 344/2/6
f 336/4/6 324/4/6 345/4/6
f 337/2/6 338/2/6 345/2/6
f 324/2/6 337/2/6 345/2/6
f 335/4/6 336/4/6 345/4/6
f 345/2/6 338/2/6 346/2/6
f 339/4/6 340/4/6 347/4/6
f 346/2/6 338/2/6 347/2/6
f 340/4/6 341/4/6 347/4/6
f 338/4/6 339/4/6 347/4/6
f 347/4/6 341/4/6 348/4/6
f 348/4/6 341/4/6 349/4/6
f 341/2/6 342/2/6 350/2/6
f 349/4/6 341/4/6 350/4/6
f 342/2/6 329/2/6 351/2/6
f 350/2/6 342/2/6 351/2/6
f 343/4/6 344/4/6 352/4/6
f 351/2/6 329/2/6 352/2/6
f 329/4/6 343/4/6 352/4/6
f 345/4/6 346/4/6 353/4/6
f 347/2/6 348/2/6 353/2/6
f 346/2/6 347/2/6 353/2/6
f 353/2/6 348/2/6 354/2/6
f 348/4/6 349/4/6 355/4/6
f 354/2/6 348/2/6 355/2/6
f 349/2/6 350/2/6 356/2/6
f 355/4/6 349/4/6 356/4/6
f 350/2/6 351/2/6 356/2/6
f 356/2/6 351/2/6 357/2/6
f 351/4/6 352/4/6 358/4/6
f 357/2/6 351/2/6 358/2/6
f 354/2/6 355/2/6 359/2/6
f 353/4/6 354/4/6 359/4/6
f 356/2/6 357/2/6 359/2/6
f 355/2/6 356/2/6 359/2/6
f 357/4/6 358/4/6 360/4/6
f 359/2/6 357/2/6 360/2/6
f 37/3/6 39/3/6 361/3/6
f 353/4/6 359/4/6 361/4/6
f 359/4/6 360/4/6 361/4/6
f 335/4/6 345/4/6 361/4/6
f 233/4/6 245/4/6 361/4/6
f 319/4/6 335/4/6 361/4/6
f 39/4/6 217/4/6 361/4/6
f 245/4/6 319/4/6 361/4/6
f 345/4/6 353/4/6 361/4/6
f 217/4/6 233/4/6 361/4/6
f 360/4/6 358/4/6 362/4/6
f 361/4/6 360/4/6 362/4/6
f 40/3/6 38/3/6 362/3/6
f 260/4/6 244/4/6 362/4/6
f 352/4/6 344/4/6 362/4/6
f 232/4/6 40/4/6 362/4/6
f 344/4/6 334/4/6 362/4/6
f 244/4/6 232/4/6 362/4/6
f 334/4/6 260/4/6 362/4/6
f 358/4/6 352/4/6 362/4/6
f 37/3/6 361/3/6 363/3/6
f 361/3/6 362/3/6 363/3/6
f 362/3/6 38/3/6 364/3/6
f 363/3/6 362/3/6 364/3/6
